<svg xmlns="http://www.w3.org/2000/svg" width="19.277" height="19.277" viewBox="0 0 19.277 19.277">
  <path id="icons8-dashboard_layout" d="M3.928,2A1.942,1.942,0,0,0,2,3.928v6.747A1.942,1.942,0,0,0,3.928,12.6H8.747a1.942,1.942,0,0,0,1.928-1.928V3.928A1.942,1.942,0,0,0,8.747,2Zm10.6,0A1.942,1.942,0,0,0,12.6,3.928V6.819A1.942,1.942,0,0,0,14.53,8.747H19.35a1.942,1.942,0,0,0,1.928-1.928V3.928A1.942,1.942,0,0,0,19.35,2ZM3.928,3.928H8.747v6.747H3.928Zm10.6,0H19.35V6.819H14.53Zm0,6.747A1.942,1.942,0,0,0,12.6,12.6V19.35a1.942,1.942,0,0,0,1.928,1.928H19.35a1.942,1.942,0,0,0,1.928-1.928V12.6a1.942,1.942,0,0,0-1.928-1.928Zm0,1.928H19.35V19.35H14.53ZM3.928,14.53A1.942,1.942,0,0,0,2,16.458V19.35a1.942,1.942,0,0,0,1.928,1.928H8.747a1.942,1.942,0,0,0,1.928-1.928V16.458A1.942,1.942,0,0,0,8.747,14.53Zm0,1.928H8.747V19.35H3.928Z" transform="translate(-2 -2)" fill="#535776"/>
</svg>
