<svg xmlns="http://www.w3.org/2000/svg" width="30.731" height="25.143" viewBox="0 0 30.731 25.143">
  <path id="icons8-permanent_job" d="M14.969,3a2.8,2.8,0,0,0-2.794,2.794v4.223a6.947,6.947,0,0,1,2.794,5.555V5.794H28.937V25.35H17.762v2.794H31.731V5.794A2.8,2.8,0,0,0,28.937,3Zm2.794,5.587v2.794h2.794V8.587Zm5.587,0v2.794h2.794V8.587ZM7.984,11.381a4.191,4.191,0,0,0,0,8.381,4.191,4.191,0,1,0,0-8.381Zm0,2.794a1.4,1.4,0,1,1,0,2.794,1.4,1.4,0,1,1,0-2.794Zm9.778,0v2.794h2.794V14.175Zm5.587,0v2.794h2.794V14.175Zm-5.587,5.587v2.794h2.794V19.762Zm5.587,0v2.794h2.794V19.762Zm-15.365,1.4C4,21.159,1,23.193,1,25.887v2.256H14.969V25.887C14.969,23.193,11.967,21.159,7.984,21.159Zm0,2.794c2.052,0,3.478.7,3.986,1.4H4C4.507,24.657,5.932,23.953,7.984,23.953Z" transform="translate(-1 -3)" fill="#6c7c8d"/>
</svg>
