<svg xmlns="http://www.w3.org/2000/svg" width="20" height="17" viewBox="0 0 20 17">
  <path id="icons8-barcode_scanner" d="M2.5,4a.5.5,0,0,0-.5.5v5a.5.5,0,0,0,.5.5h1A.5.5,0,0,0,4,9.5v-5A.5.5,0,0,0,3.5,4Zm3,0a.5.5,0,0,0-.5.5v5a.5.5,0,0,0,.5.5h3A.5.5,0,0,0,9,9.5v-5A.5.5,0,0,0,8.5,4Zm5,0a.5.5,0,0,0-.5.5v5a.5.5,0,0,0,.5.5h1a.5.5,0,0,0,.5-.5v-5a.5.5,0,0,0-.5-.5Zm3,0a.5.5,0,0,0-.5.5v5a.5.5,0,0,0,.5.5h2a.5.5,0,0,0,.5-.5v-5a.5.5,0,0,0-.5-.5Zm4,0a.5.5,0,0,0-.5.5v5a.5.5,0,0,0,.5.5h1a.5.5,0,0,0,.5-.5v-5a.5.5,0,0,0-.5-.5Zm3,0a.5.5,0,0,0-.5.5v5a.5.5,0,0,0,.5.5h1a.5.5,0,0,0,.5-.5v-5a.5.5,0,0,0-.5-.5ZM4,12a2,2,0,0,0-2,2v5a2,2,0,0,0,2,2H20a2,2,0,0,0,2-2V14a2,2,0,0,0-2-2Zm1.5,2h3a.5.5,0,0,1,.5.5v4a.5.5,0,0,1-.5.5h-3a.5.5,0,0,1-.5-.5v-4A.5.5,0,0,1,5.5,14Zm5,0h1a.5.5,0,0,1,.5.5v4a.5.5,0,0,1-.5.5h-1a.5.5,0,0,1-.5-.5v-4A.5.5,0,0,1,10.5,14Zm3,0h2a.5.5,0,0,1,.5.5v4a.5.5,0,0,1-.5.5h-2a.5.5,0,0,1-.5-.5v-4A.5.5,0,0,1,13.5,14Zm4,0h1a.5.5,0,0,1,.5.5v4a.5.5,0,0,1-.5.5h-1a.5.5,0,0,1-.5-.5v-4A.5.5,0,0,1,17.5,14Z" transform="translate(-2 -4)" fill="#535776"/>
</svg>
