<svg xmlns="http://www.w3.org/2000/svg" width="26.734" height="22.724" viewBox="0 0 26.734 22.724">
  <path id="icons8-barcode_scanner" d="M2,4v8.02H4.673V4ZM6.01,4v8.02h5.347V4Zm6.684,0v8.02h2.673V4ZM16.7,4v8.02h4.01V4Zm5.347,0v8.02h2.673V4Zm4.01,0v8.02h2.673V4ZM4.673,14.694A2.693,2.693,0,0,0,2,17.367v6.684a2.693,2.693,0,0,0,2.673,2.673H26.061a2.693,2.693,0,0,0,2.673-2.673V17.367a2.693,2.693,0,0,0-2.673-2.673Zm0,2.673H26.061v6.684H4.673ZM6.01,18.7v4.01h5.347V18.7Zm6.684,0v4.01h2.673V18.7Zm4.01,0v4.01h4.01V18.7Zm5.347,0v4.01h2.673V18.7Z" transform="translate(-2 -4)" fill="#3eb7e9"/>
</svg>
