<svg xmlns="http://www.w3.org/2000/svg" width="18" height="20" viewBox="0 0 18 20">
  <path id="icons8-related_companies" d="M18.42,2a.524.524,0,0,0-.295.105L16.25,3.484a.657.657,0,0,0,0,1.031l1.877,1.379A.561.561,0,0,0,19,5.379V2.621A.592.592,0,0,0,18.42,2ZM5,3A2,2,0,0,0,3,5V15a2,2,0,0,0,2,2H9V9a4,4,0,0,1,4-4,2,2,0,0,0-2-2Zm.5,2h1a.5.5,0,0,1,.5.5v1a.5.5,0,0,1-.5.5h-1A.5.5,0,0,1,5,6.5v-1A.5.5,0,0,1,5.5,5ZM13,7a2,2,0,0,0-2,2V19a2,2,0,0,0,2,2h6a2,2,0,0,0,2-2V9a2,2,0,0,0-2-2ZM5.5,9h1a.5.5,0,0,1,.5.5v1a.5.5,0,0,1-.5.5h-1a.5.5,0,0,1-.5-.5v-1A.5.5,0,0,1,5.5,9Zm8,0h1a.5.5,0,0,1,.5.5v1a.5.5,0,0,1-.5.5h-1a.5.5,0,0,1-.5-.5v-1A.5.5,0,0,1,13.5,9Zm4,0h1a.5.5,0,0,1,.5.5v1a.5.5,0,0,1-.5.5h-1a.5.5,0,0,1-.5-.5v-1A.5.5,0,0,1,17.5,9Zm-12,4h1a.5.5,0,0,1,.5.5v1a.5.5,0,0,1-.5.5h-1a.5.5,0,0,1-.5-.5v-1A.5.5,0,0,1,5.5,13Zm8,0h1a.5.5,0,0,1,.5.5v1a.5.5,0,0,1-.5.5h-1a.5.5,0,0,1-.5-.5v-1A.5.5,0,0,1,13.5,13Zm4,0h1a.5.5,0,0,1,.5.5v1a.5.5,0,0,1-.5.5h-1a.5.5,0,0,1-.5-.5v-1A.5.5,0,0,1,17.5,13Zm-4,4h1a.5.5,0,0,1,.5.5v1a.5.5,0,0,1-.5.5h-1a.5.5,0,0,1-.5-.5v-1A.5.5,0,0,1,13.5,17Zm4,0h1a.5.5,0,0,1,.5.5v1a.5.5,0,0,1-.5.5h-1a.5.5,0,0,1-.5-.5v-1A.5.5,0,0,1,17.5,17ZM5.58,18a.592.592,0,0,0-.58.621v2.758a.561.561,0,0,0,.873.516l1.875-1.379a.657.657,0,0,0,0-1.031L5.875,18.105A.524.524,0,0,0,5.58,18Z" transform="translate(-3 -2)" fill="#535776"/>
</svg>
