<svg xmlns="http://www.w3.org/2000/svg" width="15.834" height="17.489" viewBox="0 0 15.834 17.489">
  <path id="icons8-view" d="M6,3V18.834h6.585L13.8,17.616H7.218V4.218h6.09V7.872h3.654v3.292a3.961,3.961,0,0,1,1.218-.247v-3.9L14.164,3Zm8.526,2.074,1.58,1.58h-1.58Zm3.958,7.06a3.357,3.357,0,0,0-3.349,3.349,3.322,3.322,0,0,0,.59,1.9l-2.246,2.227.875.875,2.227-2.246a3.322,3.322,0,0,0,1.9.59,3.349,3.349,0,1,0,0-6.7Zm0,1.218a2.131,2.131,0,1,1-2.131,2.131A2.122,2.122,0,0,1,18.484,13.353Z" transform="translate(-6 -3)" fill="#202020"/>
</svg>
