<svg xmlns="http://www.w3.org/2000/svg" width="29.615" height="29.615" viewBox="0 0 29.615 29.615">
  <path id="icons8-registration" d="M15.692,3a5.641,5.641,0,1,0,5.641,5.641A5.663,5.663,0,0,0,15.692,3Zm0,2.82a2.82,2.82,0,1,1-2.82,2.82A2.8,2.8,0,0,1,15.692,5.82Zm0,12.692C11.263,18.513,3,20.692,3,24.859v3.526H17.345l2.82-2.82H5.82v-.705c0-1.226,5.229-3.526,9.872-3.526a19.463,19.463,0,0,1,7.189,1.515L25,20.733A22.339,22.339,0,0,0,15.692,18.513Zm14.394,1.41a.7.7,0,0,0-.5.207l-1.41,1.41L31,24.36l1.41-1.41a.706.706,0,0,0,0-1L30.585,20.13A.7.7,0,0,0,30.087,19.923Zm-2.906,2.614-7.258,7.258v2.82h2.821L30,25.357Z" transform="translate(-3 -3)" fill="#c66564"/>
</svg>
