<svg xmlns="http://www.w3.org/2000/svg" width="32.823" height="33.087" viewBox="0 0 32.823 33.087">
  <path id="icons8-admin_settings_male" d="M17.18,3a6.3,6.3,0,1,0,6.3,6.3A6.326,6.326,0,0,0,17.18,3Zm0,3.151A3.151,3.151,0,1,1,14.029,9.3,3.128,3.128,0,0,1,17.18,6.151Zm0,14.18C12.231,20.331,3,22.765,3,27.421V31.36H17.645a11.014,11.014,0,0,1-.465-3.151H6.151v-.788c0-1.369,5.842-3.939,11.029-3.939.35,0,.7.015,1.059.037a11.063,11.063,0,0,1,2.019-2.942A21.6,21.6,0,0,0,17.18,20.331Zm9.555,0a.4.4,0,0,0-.4.354l-.185,1.594A6.25,6.25,0,0,0,24.1,23.464l-1.477-.64a.4.4,0,0,0-.5.169l-1.477,2.554a.4.4,0,0,0,.108.52l1.271.942a6.431,6.431,0,0,0-.12,1.2,6.256,6.256,0,0,0,.12,1.2l-1.268.945a.4.4,0,0,0-.108.52l1.474,2.554a.4.4,0,0,0,.5.166l1.474-.637a6.261,6.261,0,0,0,2.049,1.185l.185,1.594a.4.4,0,0,0,.4.354h2.948a.4.4,0,0,0,.4-.354l.185-1.594a6.25,6.25,0,0,0,2.049-1.185l1.477.64a.4.4,0,0,0,.5-.169l1.477-2.554a.4.4,0,0,0-.108-.52l-1.271-.945a6.03,6.03,0,0,0,0-2.394l1.268-.945a.4.4,0,0,0,.108-.52l-1.474-2.554a.4.4,0,0,0-.5-.166l-1.474.637a6.261,6.261,0,0,0-2.049-1.185l-.185-1.594a.4.4,0,0,0-.4-.354Zm1.474,5.121a2.757,2.757,0,1,1-2.757,2.757A2.757,2.757,0,0,1,28.209,25.452Z" transform="translate(-3 -3)" fill="#c66564"/>
</svg>
