<svg xmlns="http://www.w3.org/2000/svg" width="27.413" height="24.672" viewBox="0 0 27.413 24.672">
  <path id="icons8-organization" d="M4.741,3A2.762,2.762,0,0,0,2,5.741v21.93H29.413V11.224a2.762,2.762,0,0,0-2.741-2.741H21.189V5.741A2.762,2.762,0,0,0,18.448,3Zm0,2.741H18.448V24.93H4.741ZM7.483,8.483v2.741h2.741V8.483Zm5.483,0v2.741h2.741V8.483Zm8.224,2.741h5.483V24.93H21.189V22.189H23.93V19.448H21.189V16.707H23.93V13.965H21.189ZM7.483,13.965v2.741h2.741V13.965Zm5.483,0v2.741h2.741V13.965ZM7.483,19.448v2.741h2.741V19.448Zm5.483,0v2.741h2.741V19.448Z" transform="translate(-2 -3)" fill="#c66564"/>
</svg>
