<svg xmlns="http://www.w3.org/2000/svg" width="31.857" height="23.893" viewBox="0 0 31.857 23.893">
  <path id="icons8-upload_to_cloud" d="M15.928,3A9.136,9.136,0,0,0,8.535,7a8.619,8.619,0,0,0,.093,17.238h3.318V21.583H8.628a5.973,5.973,0,0,1,0-11.946c.046,0,.155.009.332.018l.811.041.4-.705a6.627,6.627,0,0,1,12.3,2.258l.2,1.276,1.281-.166c.3-.039.486-.067.6-.067a4.646,4.646,0,0,1,0,9.292H19.91v2.655h4.646a7.288,7.288,0,0,0,.132-14.575A9.2,9.2,0,0,0,15.928,3Zm0,7.964-5.309,5.309H14.6V26.893h2.655V16.274h3.982Z" transform="translate(0 -3)" fill="#c66564"/>
</svg>
