<svg xmlns="http://www.w3.org/2000/svg" width="28.076" height="29.48" viewBox="0 0 28.076 29.48">
  <path id="icons8-address" d="M16.038,1A8.422,8.422,0,0,0,7.615,9.423c0,6.017,8.423,15.442,8.423,15.442s8.423-9.425,8.423-15.442A8.422,8.422,0,0,0,16.038,1Zm0,2.808a5.621,5.621,0,0,1,5.615,5.615c0,2.822-2.921,7.525-5.618,11.033-2.7-3.5-5.612-8.2-5.612-11.033A5.621,5.621,0,0,1,16.038,3.808Zm0,2.808a2.808,2.808,0,1,0,2.808,2.808A2.808,2.808,0,0,0,16.038,6.615ZM5.932,20.653,2,30.48H30.076l-3.932-9.827h-3.35c-.681,1.026-1.364,1.977-1.993,2.808h3.446l1.683,4.211H6.146l1.683-4.211h3.446c-.629-.831-1.312-1.781-1.993-2.808Z" transform="translate(-2 -1)" fill="#02ac97"/>
</svg>
