<svg xmlns="http://www.w3.org/2000/svg" width="37.246" height="34.007" viewBox="0 0 37.246 34.007">
  <path id="icons8-complaint" d="M30.149,0a8.121,8.121,0,0,0-8.1,8.1A8.024,8.024,0,0,0,23.381,12.5l-1.328,5.31L26.8,15.441a7.99,7.99,0,0,0,3.353.753A8.1,8.1,0,1,0,30.149,0ZM28.941,3.239h2.42l-.269,6.455H29.207ZM13.145,8.1a5.668,5.668,0,1,0,5.668,5.668A5.693,5.693,0,0,0,13.145,8.1Zm17,2.809a1.158,1.158,0,0,1,.459.085,1.075,1.075,0,0,1,.351.237,1.021,1.021,0,0,1,.221.351,1.223,1.223,0,0,1,.079.443,1.2,1.2,0,0,1-.079.433,1,1,0,0,1-.572.585,1.218,1.218,0,0,1-.459.082,1.187,1.187,0,0,1-.459-.082,1,1,0,0,1-.348-.234,1.053,1.053,0,0,1-.225-.351,1.17,1.17,0,0,1-.079-.433,1.223,1.223,0,0,1,.079-.443,1.053,1.053,0,0,1,.225-.351,1.078,1.078,0,0,1,.348-.237A1.163,1.163,0,0,1,30.149,10.906Zm-17,.43a2.429,2.429,0,1,1-2.429,2.429A2.4,2.4,0,0,1,13.145,11.336Zm0,11.336A18.018,18.018,0,0,0,5.615,24.5a10.967,10.967,0,0,0-3.093,2.125A4.828,4.828,0,0,0,1,29.959v4.048H25.291V29.959a4.828,4.828,0,0,0-1.521-3.337A10.967,10.967,0,0,0,20.676,24.5,18.018,18.018,0,0,0,13.145,22.672Zm0,3.239a15.6,15.6,0,0,1,6.114,1.5,8.17,8.17,0,0,1,2.192,1.474,1.672,1.672,0,0,1,.6,1.075v.81H4.239v-.81a1.672,1.672,0,0,1,.6-1.075A8.17,8.17,0,0,1,7.032,27.41,15.6,15.6,0,0,1,13.145,25.91Z" transform="translate(-1)" fill="#02ac97"/>
</svg>
