<svg xmlns="http://www.w3.org/2000/svg" width="34.913" height="30.152" viewBox="0 0 34.913 30.152">
  <path id="icons8-payment_history" d="M3.587,5A1.588,1.588,0,0,0,2,6.587V22.456a1.588,1.588,0,0,0,1.587,1.587H19.456V20.869H6.621a2.38,2.38,0,0,0-1.447-1.447v-9.8A2.38,2.38,0,0,0,6.621,8.174h22.5a2.38,2.38,0,0,0,1.447,1.447v3.313h3.174V6.587A1.588,1.588,0,0,0,32.152,5ZM17.829,9.761a4.993,4.993,0,0,0-.911.093,4.762,4.762,0,0,0,.952,9.429,4.7,4.7,0,0,0,1.587-.291V15.817a2.883,2.883,0,0,1,2.883-2.883A4.748,4.748,0,0,0,17.829,9.761ZM9.935,12.935a1.587,1.587,0,1,0,1.587,1.587A1.587,1.587,0,0,0,9.935,12.935Zm12.7,3.174v3.174h1.587V22.32l3.31,3.31-3.31,3.31v3.038H22.63v3.174H36.913V31.978H35.326V28.94l-3.31-3.31,3.31-3.31V19.282h1.587V16.109Zm4.761,3.174h4.761v1.723l-2.38,2.38-2.38-2.38Zm2.38,8.592,2.38,2.38v1.723H27.391V30.255Z" transform="translate(-2 -5)" fill="#02ac97"/>
</svg>
