<svg xmlns="http://www.w3.org/2000/svg" width="27.998" height="32.418" viewBox="0 0 27.998 32.418">
  <path id="icons8-ratings" d="M5.947,1A2.956,2.956,0,0,0,3,3.947v20.63H5.947V3.947H23.63V1Zm5.894,5.894A2.956,2.956,0,0,0,8.894,9.841v20.63a2.956,2.956,0,0,0,2.947,2.947H28.05A2.956,2.956,0,0,0,31,30.471V14.262L23.63,6.894Zm0,2.947H22.156v5.894H28.05V30.471H11.841Zm5.894,8.841,2.642,2.642-2.642,2.642L15.4,21.63l-2.084,2.084,4.421,4.421,4.726-4.726L25.1,26.05V18.683Z" transform="translate(-3 -1)" fill="#02ac97"/>
</svg>
