<svg xmlns="http://www.w3.org/2000/svg" width="27.432" height="30.48" viewBox="0 0 27.432 30.48">
  <path id="icons8-task_completed" d="M16.716,1a4.558,4.558,0,0,0-4.292,3.048H6.048A3.047,3.047,0,0,0,3,7.1V28.432A3.047,3.047,0,0,0,6.048,31.48H27.384a3.047,3.047,0,0,0,3.048-3.048V7.1a3.047,3.047,0,0,0-3.048-3.048H21.008A4.558,4.558,0,0,0,16.716,1Zm0,3.048a1.524,1.524,0,1,1,0,3.048H27.384V28.432H6.048V7.1H16.716a1.524,1.524,0,0,1,0-3.048Zm5.018,8.066-6.542,6.542L11.7,15.162,9.542,17.318l5.65,5.65,8.7-8.7Z" transform="translate(-3 -1)" fill="#15b29f"/>
</svg>
