<svg xmlns="http://www.w3.org/2000/svg" width="18.829" height="20.001" viewBox="0 0 18.829 20.001">
  <path id="icons8-technical_support" d="M12.33,2.006a8.2,8.2,0,0,0-.863.012A8.15,8.15,0,0,0,4.033,9.568L4.02,9.551,3.178,19.838A2,2,0,0,0,5.172,22H14a1,1,0,0,0,0-2H12a6,6,0,0,1-6-6V13a2,2,0,0,1,2-2h8a2,2,0,0,1,2,2v3H13.912a1.5,1.5,0,1,0-1.52,1.994A1,1,0,0,0,12.5,18H20a2.006,2.006,0,0,0,2-2V14a2.006,2.006,0,0,0-2-2V10A8,8,0,0,0,12.33,2.006Z" transform="translate(-3.171 -1.999)" fill="#535776"/>
</svg>
