<svg xmlns="http://www.w3.org/2000/svg" width="34.75" height="36.33" viewBox="0 0 34.75 36.33">
  <path id="icons8-calendar" d="M11.318,4V5.58H5V40.33H39.75V5.58H33.432V4H30.273V5.58h-15.8V4ZM8.159,8.739h3.159v1.58h3.159V8.739h15.8v1.58h3.159V8.739h3.159V11.9H8.159Zm0,6.318H36.591V37.17H8.159Zm9.477,3.159v3.159H20.8V18.216Zm6.318,0v3.159h3.159V18.216Zm6.318,0v3.159h3.159V18.216ZM11.318,24.534v3.159h3.159V24.534Zm6.318,0v3.159H20.8V24.534Zm6.318,0v3.159h3.159V24.534Zm6.318,0v3.159h3.159V24.534ZM11.318,30.852v3.159h3.159V30.852Zm6.318,0v3.159H20.8V30.852Zm6.318,0v3.159h3.159V30.852Z" transform="translate(-5 -4)" fill="#e6bc38"/>
</svg>
