<svg xmlns="http://www.w3.org/2000/svg" width="34.375" height="34.375" viewBox="0 0 34.375 34.375">
  <path id="icons8-data_pending" d="M4,4V38.375H38.375V4H24.052a2.865,2.865,0,0,1-5.729,0ZM6.865,6.865h9.4a5.663,5.663,0,0,0,9.847,0h9.4V35.51H6.865Zm14.323,5.729A10.026,10.026,0,1,0,31.214,22.62,10.045,10.045,0,0,0,21.188,12.594Zm0,2.865a7.161,7.161,0,1,1-7.161,7.161A7.14,7.14,0,0,1,21.188,15.458Zm-1.432,1.432v6.58l-2.417,2.462L19.308,27.9l3.312-3.267V16.891Z" transform="translate(-4 -4)" fill="#e6bc38"/>
</svg>
