<svg xmlns="http://www.w3.org/2000/svg" width="49.628" height="35.67" viewBox="0 0 49.628 35.67">
  <path id="icons8-sellsy" d="M27.916,4a13.809,13.809,0,0,0-12.6,8.384,7.514,7.514,0,0,0-2.908-.63,7.777,7.777,0,0,0-7.754,7.754c0,.224.03.418.048.63A10.714,10.714,0,0,0,0,28.814,10.877,10.877,0,0,0,10.856,39.67H38.772A10.877,10.877,0,0,0,49.628,28.814a10.745,10.745,0,0,0-7.8-10.226c.012-.212.048-.412.048-.63A13.985,13.985,0,0,0,27.916,4Zm0,3.1A10.831,10.831,0,0,1,38.772,17.958a10.986,10.986,0,0,1-.1,1.454l-.242,1.5,1.551.242a7.754,7.754,0,0,1-1.212,15.412H10.856a7.764,7.764,0,0,1-3.78-14.54l.969-.533-.194-1.115a4.372,4.372,0,0,1-.1-.872,4.654,4.654,0,0,1,7.367-3.78l1.745,1.309L17.5,14.9A10.846,10.846,0,0,1,27.916,7.1Zm3.1,10.856V31.916h3.1V17.958Zm-6.2,3.1V31.916h3.1V21.06Zm-6.2,1.551v9.305h3.1V22.611Zm-6.2,1.551v7.754h3.1V24.162Z" transform="translate(0 -4)" fill="#e6bc38"/>
</svg>
