<svg id="Component_1_1" data-name="Component 1 – 1" xmlns="http://www.w3.org/2000/svg" width="195.173" height="43" viewBox="0 0 195.173 43">
  <g id="Group_5" data-name="Group 5">
    <g id="Group_4" data-name="Group 4">
      <g id="Group_1" data-name="Group 1" transform="translate(3.84 12.866)">
        <path id="Path_3" data-name="Path 3" d="M367.312,13.924a2.107,2.107,0,0,1-.383-.036,2.2,2.2,0,0,1-1.726-2.558A6.111,6.111,0,0,1,371,6.3h16.274a2.2,2.2,0,0,1,0,4.4H371a1.809,1.809,0,0,0-1.585,1.406A2.159,2.159,0,0,1,367.312,13.924Z" transform="translate(-365.169 -6.304)" fill="#00b4ef"/>
      </g>
      <g id="Group_2" data-name="Group 2" transform="translate(6.144)">
        <path id="Path_4" data-name="Path 4" d="M394.55-8.648H382.9a2.171,2.171,0,0,1-2.14-2.2,2.171,2.171,0,0,1,2.14-2.2H394.55c8.245,0,12.8-3.123,13.929-9.548.265-1.512-.133-5.15-3.045-6.117a2.193,2.193,0,0,1-1.482-2.008,2.206,2.206,0,0,1,1.322-2.122,7.59,7.59,0,0,0,4.9-5.8c.45-2.566.111-4.567-1.009-5.945-1.783-2.195-5.247-2.655-7.84-2.655H381.679a1.809,1.809,0,0,0-1.585,1.406,2.15,2.15,0,0,1-2.486,1.775,2.2,2.2,0,0,1-1.726-2.558,6.112,6.112,0,0,1,5.8-5.027h19.642c5.027,0,8.873,1.464,11.124,4.235,1.971,2.427,2.623,5.639,1.937,9.55a11.6,11.6,0,0,1-4.21,7.153,10.966,10.966,0,0,1,2.519,8.894C411.637-15.81,407.635-8.648,394.55-8.648Z" transform="translate(-375.848 51.648)" fill="#070e2a"/>
      </g>
      <g id="Group_3" data-name="Group 3" transform="translate(0 25.732)">
        <path id="Path_5" data-name="Path 5" d="M349.522,81.525a2.1,2.1,0,0,1-.382-.036,2.2,2.2,0,0,1-1.726-2.557l1.575-8.975a6.927,6.927,0,0,1,6.57-5.7H366.65a2.2,2.2,0,0,1,0,4.4H355.558a2.608,2.608,0,0,0-2.358,2.079l-1.575,8.975A2.158,2.158,0,0,1,349.522,81.525Z" transform="translate(-347.379 -64.257)" fill="#00b4ef"/>
      </g>
    </g>
  </g>
  <g id="Group_9" data-name="Group 9" transform="translate(57.816 6.222)">
    <g id="Group_6" data-name="Group 6" transform="translate(101.406 1.591)">
      <path id="Path_6" data-name="Path 6" d="M614.541,202.408v1.432h-3.716a3.962,3.962,0,0,0-2.964.914,4.014,4.014,0,0,0-.885,2.982v2.5h7.254v1.392h-7.254V230.8H605.3V211.632h-6.547v-1.392H605.3v-2.5a5.256,5.256,0,0,1,1.283-3.9,5.463,5.463,0,0,1,4.158-1.432Z" transform="translate(-598.749 -202.408)" fill="#009edd" stroke="#009edd" stroke-miterlimit="10" stroke-width="1"/>
    </g>
    <g id="Group_7" data-name="Group 7" transform="translate(0 0)">
      <path id="Path_7" data-name="Path 7" d="M130.687,195.243v13.836a8.846,8.846,0,0,1,8.824-5.724,9.784,9.784,0,0,1,7.9,3.459,11.577,11.577,0,0,1,2.633,7.783,11.789,11.789,0,0,1-2.587,7.783,9.941,9.941,0,0,1-7.992,3.418q-6.445,0-8.87-5.559v4.983h-1.709V195.243Zm2.171,12.354a10.243,10.243,0,0,0-2.218,6.795v.535a9.771,9.771,0,0,0,2.171,6.63,8,8,0,0,0,6.56,2.8,8.345,8.345,0,0,0,6.7-2.882,10.628,10.628,0,0,0,2.171-6.877,10.246,10.246,0,0,0-2.218-6.877,8.132,8.132,0,0,0-6.7-2.924A7.879,7.879,0,0,0,132.858,207.6Z" transform="translate(-128.885 -195.243)" fill="#070e2a"/>
      <path id="Path_8" data-name="Path 8" d="M265.212,235.284a11.216,11.216,0,0,1,2.818,7.742,11.438,11.438,0,0,1-2.818,7.742,10.65,10.65,0,0,1-8.316,3.459,10.517,10.517,0,0,1-8.316-3.459,11.216,11.216,0,0,1-2.818-7.742,11,11,0,0,1,2.818-7.742,10.414,10.414,0,0,1,8.316-3.5A10.544,10.544,0,0,1,265.212,235.284Zm-15.292.947a10,10,0,0,0-2.356,6.795,9.9,9.9,0,0,0,2.356,6.754,8.754,8.754,0,0,0,6.976,3.006,8.885,8.885,0,0,0,6.976-3.006,10.916,10.916,0,0,0,0-13.548,8.754,8.754,0,0,0-6.976-3.006A8.628,8.628,0,0,0,249.92,236.231Z" transform="translate(-220.538 -223.672)" fill="#070e2a"/>
      <path id="Path_9" data-name="Path 9" d="M387.225,235.284a11.216,11.216,0,0,1,2.818,7.742,11.438,11.438,0,0,1-2.818,7.742,10.649,10.649,0,0,1-8.316,3.459,10.518,10.518,0,0,1-8.316-3.459,11.217,11.217,0,0,1-2.818-7.742,11,11,0,0,1,2.818-7.742,10.415,10.415,0,0,1,8.316-3.5A10.543,10.543,0,0,1,387.225,235.284Zm-15.292.947a10,10,0,0,0-2.356,6.795,9.9,9.9,0,0,0,2.356,6.754,8.754,8.754,0,0,0,6.976,3.006,8.885,8.885,0,0,0,6.976-3.006,10.916,10.916,0,0,0,0-13.548,8.755,8.755,0,0,0-6.976-3.006A8.627,8.627,0,0,0,371.934,236.231Z" transform="translate(-316.219 -223.672)" fill="#070e2a"/>
      <path id="Path_10" data-name="Path 10" d="M495.874,195.243v20.343l14.645-11.654h2.587l-10.487,8.277,11.549,13.013h-2.356L501.325,213.28l-5.452,4.365v7.577h-1.8V195.243Z" transform="translate(-415.258 -195.243)" fill="#070e2a"/>
    </g>
    <g id="Group_8" data-name="Group 8" transform="translate(122.968 3.002)">
      <path id="Path_11" data-name="Path 11" d="M701.667,209.241a1.328,1.328,0,0,1,.531,1.113,1.435,1.435,0,0,1-.531,1.113,1.768,1.768,0,0,1-1.239.477,1.626,1.626,0,0,1-1.238-.477,1.435,1.435,0,0,1-.531-1.113,1.327,1.327,0,0,1,.531-1.113,1.626,1.626,0,0,1,1.238-.477A1.768,1.768,0,0,1,701.667,209.241Zm-.4,6.521v20.556h-1.681V215.762Z" transform="translate(-698.659 -208.764)" fill="#009edd" stroke="#009edd" stroke-miterlimit="10" stroke-width="1"/>
      <path id="Path_12" data-name="Path 12" d="M749.625,209.241a1.327,1.327,0,0,1,.531,1.113,1.435,1.435,0,0,1-.531,1.113,1.768,1.768,0,0,1-1.238.477,1.627,1.627,0,0,1-1.239-.477,1.436,1.436,0,0,1-.531-1.113,1.328,1.328,0,0,1,.531-1.113,1.627,1.627,0,0,1,1.239-.477A1.768,1.768,0,0,1,749.625,209.241Zm-.4,6.521v20.556h-1.681V215.762Z" transform="translate(-736.267 -208.764)" fill="#009edd" stroke="#009edd" stroke-miterlimit="10" stroke-width="1"/>
    </g>
  </g>
</svg>
