<svg xmlns="http://www.w3.org/2000/svg" width="19" height="18" viewBox="0 0 19 18">
  <path id="icons8-purchase_order" d="M5,3A1,1,0,0,0,4,4v9a1,1,0,1,0,2,0V5H19V18a.984.984,0,0,1-1,1,1,1,0,0,1-1-1V17a1,1,0,0,0-1-1H3a1,1,0,0,0-1,1v1a3,3,0,0,0,3,3H18a3.015,3.015,0,0,0,3-3V4a1,1,0,0,0-1-1ZM8.5,8a.5.5,0,0,0-.5.5v1a.5.5,0,0,0,.5.5h1a.5.5,0,0,0,.5-.5v-1A.5.5,0,0,0,9.5,8ZM13,8a1,1,0,0,0,0,2h3a1,1,0,0,0,0-2ZM8.5,12a.5.5,0,0,0-.5.5v1a.5.5,0,0,0,.5.5h1a.5.5,0,0,0,.5-.5v-1a.5.5,0,0,0-.5-.5ZM13,12a1,1,0,0,0,0,2h3a1,1,0,0,0,0-2Z" transform="translate(-2 -3)" fill="#535baa"/>
</svg>
