<svg xmlns="http://www.w3.org/2000/svg" width="16" height="20" viewBox="0 0 16 20">
  <path id="icons8-statistic_document" d="M13.172,2H6A2.006,2.006,0,0,0,4,4V20a2.006,2.006,0,0,0,2,2H18a2.006,2.006,0,0,0,2-2V8.828a2,2,0,0,0-.586-1.414L14.586,2.586A2,2,0,0,0,13.172,2ZM8,19H8a1,1,0,0,1-1-1V13a1,1,0,0,1,1-1H8a1,1,0,0,1,1,1v5A1,1,0,0,1,8,19Zm4,0h0a1,1,0,0,1-1-1V15a1,1,0,0,1,1-1h0a1,1,0,0,1,1,1v3A1,1,0,0,1,12,19Zm4,0h0a1,1,0,0,1-1-1V17a1,1,0,0,1,1-1h0a1,1,0,0,1,1,1v1A1,1,0,0,1,16,19ZM13,9V3.5L18.5,9Z" transform="translate(-4 -2)" fill="#535baa"/>
</svg>
