<svg xmlns="http://www.w3.org/2000/svg" width="19.096" height="20" viewBox="0 0 19.096 20">
  <path id="icons8-settings" d="M10.49,2a1,1,0,0,0-.98.809L9.176,4.523A7.983,7.983,0,0,0,6.93,5.814L5.285,5.248a1,1,0,0,0-1.191.445L2.586,8.307a1,1,0,0,0,.209,1.256l1.318,1.146a7.413,7.413,0,0,0,0,2.582L2.795,14.438a1,1,0,0,0-.209,1.256l1.508,2.613a1,1,0,0,0,1.191.447l1.645-.566a7.984,7.984,0,0,0,2.246,1.289l.334,1.715a1,1,0,0,0,.98.809h3.02a1,1,0,0,0,.98-.809l.334-1.715a7.983,7.983,0,0,0,2.246-1.291l1.645.566a1,1,0,0,0,1.191-.445l1.508-2.615a1,1,0,0,0-.209-1.254l-1.318-1.146a7.413,7.413,0,0,0,0-2.582l1.318-1.146a1,1,0,0,0,.209-1.256L19.906,5.693a1,1,0,0,0-1.191-.447l-1.645.566a7.984,7.984,0,0,0-2.246-1.289L14.49,2.809A1,1,0,0,0,13.51,2ZM12,8a4,4,0,1,1-4,4A4,4,0,0,1,12,8Z" transform="translate(-2.452 -2)" fill="#535baa"/>
</svg>
