<svg xmlns="http://www.w3.org/2000/svg" width="34.953" height="30.591" viewBox="0 0 34.953 30.591">
  <g id="Group_67" data-name="Group 67" transform="translate(-490.523 -451.705)">
    <path id="icons8-experiment" d="M10,4V6.549h1.275V28.217a6.373,6.373,0,1,0,12.746,0V6.549H25.3V4Zm3.824,2.549h7.648v3.824H13.824Zm0,6.373h7.648v15.3a3.824,3.824,0,1,1-7.648,0Zm5.1,3.824A1.275,1.275,0,1,0,20.2,18.021,1.277,1.277,0,0,0,18.922,16.746Zm-2.549,5.1a1.275,1.275,0,1,0,1.275,1.275A1.277,1.277,0,0,0,16.373,21.844Z" transform="translate(480.523 447.705)" fill="#476b98"/>
    <path id="icons8-purchase_order" d="M4,3V15H2v3a3,3,0,0,0,3,3H18a3.015,3.015,0,0,0,3-3V3ZM6,5H19V18a.984.984,0,0,1-1,1,1,1,0,0,1-1-1V15H6ZM8,7V9h2V7Zm4,0V9h5V7ZM8,11v2h2V11Zm4,0v2h5V11ZM4,17H15v1a2.988,2.988,0,0,0,.172,1H5a1,1,0,0,1-1-1Z" transform="translate(504.477 461)" fill="#476b98"/>
  </g>
</svg>
