<svg xmlns="http://www.w3.org/2000/svg" width="36.455" height="30.591" viewBox="0 0 36.455 30.591">
  <g id="Group_68" data-name="Group 68" transform="translate(-1221.047 -455.705)">
    <path id="icons8-experiment" d="M10,4V6.549h1.275V28.217a6.373,6.373,0,1,0,12.746,0V6.549H25.3V4Zm3.824,2.549h7.648v3.824H13.824Zm0,6.373h7.648v15.3a3.824,3.824,0,1,1-7.648,0Zm5.1,3.824A1.275,1.275,0,1,0,20.2,18.021,1.277,1.277,0,0,0,18.922,16.746Zm-2.549,5.1a1.275,1.275,0,1,0,1.275,1.275A1.277,1.277,0,0,0,16.373,21.844Z" transform="translate(1211.047 451.705)" fill="#476b98"/>
    <path id="icons8-verified_account" d="M9,2.01A3.119,3.119,0,0,0,6.393,3.678l-.918,1.8-1.8.918A3.063,3.063,0,0,0,2.15,10.08L2.771,12,2.15,13.922a3.061,3.061,0,0,0,1.525,3.688l1.8.916.92,1.8a3.118,3.118,0,0,0,3.686,1.529L12,21.229l1.92.621a3.073,3.073,0,0,0,3.688-1.527l.918-1.8,1.8-.918A3.063,3.063,0,0,0,21.85,13.92L21.229,12l.621-1.92a3.06,3.06,0,0,0-1.525-3.687l-1.8-.918-.92-1.8A3.119,3.119,0,0,0,13.922,2.15L12,2.771l-1.92-.619A2.988,2.988,0,0,0,9,2.01ZM9.082,4a1.056,1.056,0,0,1,.383.051l2.227.721a1.007,1.007,0,0,0,.619,0l2.229-.723a1.085,1.085,0,0,1,1.287.535l1.066,2.086a1,1,0,0,0,.434.436l2.088,1.066a1.072,1.072,0,0,1,.533,1.291l-.721,2.227a1,1,0,0,0,0,.615l.1.309.621,1.92a1.071,1.071,0,0,1-.533,1.291l-2.088,1.066a1,1,0,0,0-.434.434l-1.066,2.086a1.081,1.081,0,0,1-1.289.535l-2.229-.721A.986.986,0,0,0,12,19.178a.958.958,0,0,0-.309.049l-2.229.723a1.088,1.088,0,0,1-1.289-.535L7.109,17.328a1.007,1.007,0,0,0-.436-.436L4.588,15.826a1.073,1.073,0,0,1-.535-1.291l.721-2.227a1,1,0,0,0,0-.615L4.053,9.465a1.072,1.072,0,0,1,.535-1.291L6.674,7.107a1,1,0,0,0,.434-.434L8.174,4.588A1.082,1.082,0,0,1,9.082,4Zm7.211,4.291L11,13.586,8.707,11.293,7.293,12.707,11,16.414l6.707-6.707Z" transform="translate(1235.5 464.295)" fill="#476b98"/>
  </g>
</svg>
