<svg xmlns="http://www.w3.org/2000/svg" width="35.319" height="48.057" viewBox="0 0 35.319 48.057">
  <g id="Group_74" data-name="Group 74" transform="translate(-431.389 -387.655)">
    <path id="icons8-experiment" d="M10,4V6.549h1.275V28.217a6.373,6.373,0,1,0,12.746,0V6.549H25.3V4Zm3.824,2.549h7.648v3.824H13.824Zm0,6.373h7.648v15.3a3.824,3.824,0,1,1-7.648,0Zm5.1,3.824A1.275,1.275,0,1,0,20.2,18.021,1.277,1.277,0,0,0,18.922,16.746Zm-2.549,5.1a1.275,1.275,0,1,0,1.275,1.275A1.277,1.277,0,0,0,16.373,21.844Z" transform="translate(432.908 383.655)" fill="#4078bd"/>
    <path id="icons8-get_cash" d="M13.059,19a8.52,8.52,0,0,0-2.43.356l-.026.01-7.6,2.913,2.657,7.459,6.606-2.529,9.551,5.257,16.505-6.831L37.3,23.161,21.985,29.5l-9.512-5.236L7.266,26.257l-.86-2.414,5.087-1.951a5.432,5.432,0,0,1,1.572-.214,4.283,4.283,0,0,1,2.976,1.057l.01.008.01.008a10.764,10.764,0,0,0,3.868,2.49,19.518,19.518,0,0,0,5.837.5l-.01-2.678a18.414,18.414,0,0,1-5.024-.374,8.152,8.152,0,0,1-2.9-1.941l-.018-.016A7.027,7.027,0,0,0,13.059,19Z" transform="translate(428.384 403.245)" fill="#4078bd"/>
  </g>
</svg>
