<svg xmlns="http://www.w3.org/2000/svg" width="29.024" height="27.244" viewBox="0 0 29.024 27.244">
  <path id="icons8-yard_sale" d="M17.512,2.906,4.915,8.135A3.017,3.017,0,0,0,3,10.882V30.151H6.225V10.888L17.512,6.2,28.8,10.888V30.151h3.225V10.882a3.014,3.014,0,0,0-1.915-2.747Zm-4.3,12.187a2.012,2.012,0,1,0,0,4.014,2.012,2.012,0,1,0,0-4.014Zm6.45,0-8.6,12.046h4.3l8.6-12.046Zm2.154,8.032a2.012,2.012,0,1,0,2.148,2.009A2.089,2.089,0,0,0,21.814,23.125Z" transform="translate(-3 -2.906)" fill="#3eb7e9"/>
</svg>
