<svg xmlns="http://www.w3.org/2000/svg" width="41.715" height="43.938" viewBox="0 0 41.715 43.938">
  <g id="Group_60" data-name="Group 60" transform="translate(-909.295 -466.826)">
    <g id="Group_13" data-name="Group 13" transform="translate(518.122 -52.434) rotate(14)">
      <path id="icons8-experiment" d="M10,4V6.549h1.275V28.217a6.373,6.373,0,1,0,12.746,0V6.549H25.3V4Zm3.824,2.549h7.648v3.824H13.824Zm0,6.373h7.648v15.3a3.824,3.824,0,1,1-7.648,0Zm5.1,3.824A1.275,1.275,0,1,0,20.2,18.021,1.277,1.277,0,0,0,18.922,16.746Zm-2.549,5.1a1.275,1.275,0,1,0,1.275,1.275A1.277,1.277,0,0,0,16.373,21.844Z" transform="translate(504.908 413.655)" fill="#3eb7e9"/>
    </g>
    <path id="Path_17" data-name="Path 17" d="M234.337,23.332a.962.962,0,0,0-.958.958V64.667a.962.962,0,0,0,.958.958h17.3a.962.962,0,0,0,.967-.958V24.289a.962.962,0,0,0-.967-.958Zm.958,1.924h15.384V63.709H235.294Zm7.692,1.923a5.758,5.758,0,0,0-3.222.986,5.655,5.655,0,0,0-1.56,1.555,5.569,5.569,0,0,0-.866,2.065c-.013.065-.021.132-.032.2h-.09a.962.962,0,0,0,0,1.925h.09c.012.066.019.133.032.2a5.755,5.755,0,0,0,1.568,2.916,5.87,5.87,0,0,0,.858.71,5.7,5.7,0,0,0,3.222.978,5.59,5.59,0,0,0,2.249-.452,5.725,5.725,0,0,0,.98-.526,5.984,5.984,0,0,0,1.555-1.562,5.667,5.667,0,0,0,.866-2.063c.013-.065.019-.133.03-.2h.09a.962.962,0,0,0,0-1.925h-.092c-.01-.065-.015-.133-.028-.2a5.727,5.727,0,0,0-5.65-4.605Zm0,1.922a3.918,3.918,0,0,1,.781.079,3.761,3.761,0,0,1,.717.22,3.909,3.909,0,0,1,1.22.822,3.952,3.952,0,0,1,.475.574,3.859,3.859,0,0,1,.355.653,3.678,3.678,0,0,1,.164.531h-7.422a4.048,4.048,0,0,1,.169-.531,3.836,3.836,0,0,1,.355-.653,3.914,3.914,0,0,1,.469-.574,3.859,3.859,0,0,1,2.717-1.121Zm-3.71,4.8H246.7a3.678,3.678,0,0,1-.163.531,3.843,3.843,0,0,1-.355.653,3.951,3.951,0,0,1-.475.575,3.85,3.85,0,0,1-.569.47,3.805,3.805,0,0,1-1.368.575,3.917,3.917,0,0,1-.781.077,3.8,3.8,0,0,1-2.717-1.121,3.913,3.913,0,0,1-.469-.575,3.827,3.827,0,0,1-.355-.653,4.048,4.048,0,0,1-.169-.531Zm-1.093,6.727a.961.961,0,0,0-.967.965V60.82a.962.962,0,0,0,.967.967H247.8a.962.962,0,0,0,.958-.967V41.6a.962.962,0,0,0-.958-.965Zm.958,1.923h7.692V59.862h-7.692Zm2.888,1.922a.961.961,0,1,0,0,1.922h1.922a.961.961,0,0,0,0-1.922Zm0,5.77a.961.961,0,1,0,0,1.922h1.922a.961.961,0,0,0,0-1.922Z" transform="translate(698.157 443.744)" fill="#3eb7e9" stroke="#3eb7e9" stroke-width="0.5" fill-rule="evenodd"/>
  </g>
</svg>
