<svg xmlns="http://www.w3.org/2000/svg" width="37.395" height="26.014" viewBox="0 0 37.395 26.014">
  <path id="icons8-in_transit" d="M0,5V8.252H22.762V22.885h-9.4a4.822,4.822,0,0,0-7.221,0H4.878V21.259l3.252-3.252h-6.5v8.129H4.878a4.878,4.878,0,0,0,9.755,0h9.755a4.878,4.878,0,0,0,9.755,0H37.4V18.007L32.965,9.15a1.62,1.62,0,0,0-1.451-.9h-5.5V5Zm1.626,6.5v3.252H13.007V11.5Zm24.388,0h4.493l1.626,3.252H26.014Zm0,6.5h7.745l.384.768v4.109H32.876a4.815,4.815,0,0,0-6.862-.359ZM9.755,24.1a2.032,2.032,0,1,1-2.032,2.032A2.035,2.035,0,0,1,9.755,24.1Zm19.51,0a2.032,2.032,0,1,1-2.032,2.032A2.035,2.035,0,0,1,29.266,24.1Z" transform="translate(0 -5)" fill="#3eb7e9"/>
</svg>
