<svg xmlns="http://www.w3.org/2000/svg" width="30.814" height="29.413" viewBox="0 0 30.814 29.413">
  <path id="icons8-renew" d="M2,3V24.009a4.207,4.207,0,0,0,4.2,4.2h7.827a11.081,11.081,0,0,1-.728-2.8H6.2a1.4,1.4,0,0,1-1.4-1.4V5.8H21.609v7.37a11.194,11.194,0,0,1,2.8-.367V3ZM7.6,8.6v4.2H18.808V8.6Zm19.609,0v4.568a11.092,11.092,0,0,1,2.8,1.143V8.6Zm-19.609,7v2.8h7.113a11.237,11.237,0,0,1,2.3-2.8Zm16.808,0a8.4,8.4,0,1,0,0,16.808v-2.8a5.582,5.582,0,0,1-5.6-5.6,5.685,5.685,0,0,1,.112-1.133,5.6,5.6,0,1,1,10.16,4.235c-.022.033-.048.063-.071.1l-1.8-1.8v5.6h5.6L31,29.2a8.39,8.39,0,0,0-6.593-13.6ZM7.6,21.208v2.8h5.6a11.194,11.194,0,0,1,.367-2.8Z" transform="translate(-2 -3)" fill="#ff6fa1"/>
</svg>
