<svg xmlns="http://www.w3.org/2000/svg" width="12.737" height="12.737" viewBox="0 0 12.737 12.737">
  <path id="icons8-link" d="M13.42,4a3.314,3.314,0,0,0-2.355.978l-.779.779a3.318,3.318,0,0,0-.978,2.355,3.267,3.267,0,0,0,.232,1.211l.862-.862a2.274,2.274,0,0,1,.63-1.957l.779-.779a2.271,2.271,0,0,1,1.609-.663,2.233,2.233,0,0,1,1.592.663,2.268,2.268,0,0,1,0,3.2l-.779.779a2.271,2.271,0,0,1-1.609.663,1.944,1.944,0,0,1-.348-.033l-.862.862a3.267,3.267,0,0,0,1.211.232,3.314,3.314,0,0,0,2.355-.978l.779-.779a3.318,3.318,0,0,0,.978-2.355A3.341,3.341,0,0,0,13.42,4ZM12.11,7.864,7.864,12.11l.763.763,4.246-4.246Zm-4,1.443a3.314,3.314,0,0,0-2.355.978l-.779.779A3.318,3.318,0,0,0,4,13.42a3.341,3.341,0,0,0,3.317,3.317,3.314,3.314,0,0,0,2.355-.978l.779-.779a3.318,3.318,0,0,0,.978-2.355,3.267,3.267,0,0,0-.232-1.211l-.862.862a2.274,2.274,0,0,1-.63,1.957l-.779.779a2.271,2.271,0,0,1-1.609.663,2.233,2.233,0,0,1-1.592-.663,2.268,2.268,0,0,1,0-3.2l.779-.779a2.271,2.271,0,0,1,1.609-.663,1.944,1.944,0,0,1,.348.033l.862-.862A3.267,3.267,0,0,0,8.113,9.307Z" transform="translate(-4 -4)" fill="#202020" opacity="0.87"/>
</svg>
