<svg xmlns="http://www.w3.org/2000/svg" width="13.349" height="13.712" viewBox="0 0 13.349 13.712">
  <path id="icons8-settings" d="M8.535,3l-.082.428L8.14,4.994A5.242,5.242,0,0,0,6.772,5.8L5.239,5.274l-.412-.132-.214.379L3.558,7.334l-.214.379.313.28L4.843,9.032a5.148,5.148,0,0,0-.1.824,5.148,5.148,0,0,0,.1.824L3.657,11.718,3.344,12l.214.379L4.613,14.19l.214.379.412-.132,1.533-.527a5.242,5.242,0,0,0,1.368.808l.313,1.566.082.428H11.5l.082-.428.313-1.566a5.242,5.242,0,0,0,1.368-.808l1.533.527.412.132.214-.379,1.055-1.813L16.693,12l-.313-.28L15.193,10.68a5.148,5.148,0,0,0,.1-.824,5.148,5.148,0,0,0-.1-.824L16.38,7.994l.313-.28-.214-.379L15.424,5.521l-.214-.379-.412.132L13.265,5.8A5.242,5.242,0,0,0,11.9,4.994l-.313-1.566L11.5,3Zm.857,1.055h1.253l.264,1.368.066.313.3.1a4.228,4.228,0,0,1,1.6.923l.231.214.3-.1,1.335-.461.626,1.071L14.3,8.422l-.247.2.082.313a4.356,4.356,0,0,1,0,1.846l-.066.313.231.2,1.055.939L14.732,13.3,13.4,12.839l-.3-.1-.231.214a4.228,4.228,0,0,1-1.6.923l-.3.1-.066.313-.264,1.368H9.392l-.264-1.368-.066-.313-.3-.1a4.228,4.228,0,0,1-1.6-.923l-.231-.214-.3.1L5.3,13.3l-.626-1.071,1.055-.939.247-.2L5.9,10.779a4.356,4.356,0,0,1,0-1.846l.082-.313-.247-.2L4.679,7.483,5.3,6.411l1.335.461.3.1.231-.214a4.228,4.228,0,0,1,1.6-.923l.3-.1.066-.313Zm.626,3.164a2.637,2.637,0,1,0,2.637,2.637A2.645,2.645,0,0,0,10.018,7.219Zm0,1.055A1.582,1.582,0,1,1,8.436,9.856,1.575,1.575,0,0,1,10.018,8.274Z" transform="translate(-3.344 -3)" fill="#3d3d3d"/>
</svg>
