<svg xmlns="http://www.w3.org/2000/svg" width="39.145" height="39.145" viewBox="0 0 39.145 39.145">
  <path id="icons8-services" d="M30.617,2.5V4.62a8.505,8.505,0,0,0-3.439,1.413l-1.555-1.46L23.551,6.787,25.059,8.2a8.556,8.556,0,0,0-1.366,3.345h-2.12v3.015h2.12a8.422,8.422,0,0,0,1.413,3.392l-1.6,1.555,2.167,2.167,1.555-1.6a8.422,8.422,0,0,0,3.392,1.413V23.6h3.015v-2.12a8.556,8.556,0,0,0,3.345-1.366l1.413,1.507L40.6,19.552,39.144,18a8.505,8.505,0,0,0,1.413-3.439h2.12V11.544h-2.12a8.422,8.422,0,0,0-1.413-3.392L40.557,6.74l-2.12-2.12L37.024,6.033A8.422,8.422,0,0,0,33.632,4.62V2.5Zm1.507,4.993a5.559,5.559,0,1,1-5.559,5.559A5.524,5.524,0,0,1,32.125,7.493ZM12.576,16.4,9.8,17.527l1.083,2.732a10.421,10.421,0,0,0-3.533,3.486L4.662,22.661,3.531,25.441l2.685,1.083a9.616,9.616,0,0,0,0,4.993L3.531,32.6,4.662,35.38,7.347,34.3A10.35,10.35,0,0,0,10.88,37.83L9.8,40.515l2.779,1.131,1.083-2.685a10.252,10.252,0,0,0,2.5.33,10.252,10.252,0,0,0,2.5-.33l1.083,2.685,2.779-1.131L21.432,37.83A10.421,10.421,0,0,0,24.917,34.3L27.65,35.38,28.78,32.6l-2.732-1.083a9.616,9.616,0,0,0,0-4.993l2.732-1.083L27.65,22.661l-2.732,1.083a10.336,10.336,0,0,0-3.486-3.486l1.083-2.732L19.736,16.4l-1.083,2.732a10.29,10.29,0,0,0-2.5-.33,10.29,10.29,0,0,0-2.5.33Zm3.58,5.417a7.231,7.231,0,0,1,0,14.462,7.231,7.231,0,1,1,0-14.462Z" transform="translate(-3.531 -2.5)" fill="#c66564"/>
</svg>
