<svg xmlns="http://www.w3.org/2000/svg" width="33.88" height="32.468" viewBox="0 0 33.88 32.468">
  <path id="icons8-weekend" d="M11.058,4V5.412H4V36.468H37.879V5.412H30.821V4H28V5.412H13.882V4ZM6.823,8.235h4.235V9.647h2.823V8.235H28V9.647h2.823V8.235h4.235v2.823H6.823Zm0,5.647H35.056V33.645H6.823ZM9.647,16.7v5.647H12.47V19.528h2.823V16.7Zm8.47,0v5.647H20.94V19.528h2.823V16.7Zm8.47,0v5.647h5.647V16.7Zm-16.94,8.47v5.647H12.47V28h2.823V25.175Zm8.47,0v5.647H20.94V28h2.823V25.175Zm8.47,0v5.647h5.647V25.175Z" transform="translate(-4 -4)" fill="#c66564"/>
</svg>
