<svg xmlns="http://www.w3.org/2000/svg" width="36.814" height="26.295" viewBox="0 0 36.814 26.295">
  <path id="icons8-membership_card" d="M5.944,6A3.965,3.965,0,0,0,2,9.944V28.351A3.965,3.965,0,0,0,5.944,32.3H34.869a3.965,3.965,0,0,0,3.944-3.944V9.944A3.965,3.965,0,0,0,34.869,6Zm0,2.63H34.869a1.292,1.292,0,0,1,1.315,1.315V28.351a1.292,1.292,0,0,1-1.315,1.315H5.944A1.292,1.292,0,0,1,4.63,28.351V9.944A1.292,1.292,0,0,1,5.944,8.63Zm9.2,2.63-2.409,5.259-5.886.765,4.35,3.965L9.889,27.036l5.259-2.958,5.259,2.958-1.315-5.788,4.35-3.965-5.886-.765Zm0,6.312.021.041.6,1.325,1.448.19.257.036-.154.139-1.135,1.032.339,1.495.005.01-.092-.051-1.289-.724-1.289.724-.092.051.005-.01.334-1.495L12.975,19.3l-.159-.139.262-.036,1.443-.19.606-1.325Zm7.889,6.836v2.63h2.63v-2.63Zm3.944,0v2.63h2.63v-2.63Zm3.944,0v2.63h2.63v-2.63Z" transform="translate(-2 -6)" fill="#c66564"/>
</svg>
