<svg xmlns="http://www.w3.org/2000/svg" width="23.413" height="34.794" viewBox="0 0 23.413 34.794">
  <path id="icons8-location" d="M18.707,3A11.729,11.729,0,0,0,7,14.707a16.539,16.539,0,0,0,1.748,6.219,72.03,72.03,0,0,0,3.618,6.991C15,32.454,17.65,36.25,17.65,36.25l1.057,1.545,1.057-1.545s2.652-3.8,5.284-8.333a72.029,72.029,0,0,0,3.618-6.991,16.539,16.539,0,0,0,1.748-6.219A11.729,11.729,0,0,0,18.707,3Zm0,2.6a9.084,9.084,0,0,1,9.105,9.105,15.7,15.7,0,0,1-1.5,5.162,71.439,71.439,0,0,1-3.536,6.748c-2.043,3.526-3.313,5.391-4.065,6.5-.752-1.113-2.022-2.977-4.065-6.5a71.439,71.439,0,0,1-3.536-6.748,15.7,15.7,0,0,1-1.5-5.162A9.084,9.084,0,0,1,18.707,5.6Zm0,6.5a2.6,2.6,0,1,0,2.6,2.6A2.6,2.6,0,0,0,18.707,12.105Z" transform="translate(-7 -3)" fill="#c66564"/>
</svg>
