<svg xmlns="http://www.w3.org/2000/svg" width="27.024" height="30.026" viewBox="0 0 27.024 30.026">
  <path id="icons8-spiral_bound_booklet" d="M8.005,2A3.025,3.025,0,0,0,5,5V6.5H3.5a1.5,1.5,0,0,0,0,3H5v3H3.5a1.5,1.5,0,1,0,0,3H5v3H3.5a1.5,1.5,0,0,0,0,3H5v3H3.5a1.5,1.5,0,0,0,0,3H5v1.5a3.025,3.025,0,0,0,3,3H26.021a3.025,3.025,0,0,0,3-3V5a3.025,3.025,0,0,0-3-3Zm0,3H26.021V29.024H8.005Zm3,4.5v4.5H23.019v-4.5Zm0,7.507v3H23.019v-3Zm0,4.5v3H23.019v-3Z" transform="translate(-2 -2)" fill="#ff6fa1"/>
</svg>
