<svg xmlns="http://www.w3.org/2000/svg" width="24" height="16" viewBox="0 0 24 16">
  <path id="icons8-performance_macbook" d="M4,4A2,2,0,0,0,2,6V16a2,2,0,0,0,2,2H1a1,1,0,0,0,0,2H23a1,1,0,0,0,0-2H20a2,2,0,0,0,2-2V6a2,2,0,0,0-2-2ZM4,6H20l0,10H4Zm9.707,2A1,1,0,0,0,13,8.293l-3,3.293L8.707,10.293a1,1,0,0,0-1.414,1.414l2,2a1,1,0,0,0,1.414,0l3.146-3.354,1.439,1.439a1,1,0,0,0,1.414-1.414L14.621,8.293a.984.984,0,0,0-.809-.273A1.014,1.014,0,0,0,13.707,8Z" transform="translate(0 -4)" fill="#535776"/>
</svg>
