<svg xmlns="http://www.w3.org/2000/svg" width="34.538" height="24.026" viewBox="0 0 34.538 24.026">
  <path id="icons8-in_transit" d="M0,5V8H21.023V21.518H12.345a4.454,4.454,0,0,0-6.669,0H4.5v-1.5l3-3H1.5v7.508h3a4.5,4.5,0,0,0,9.01,0h9.01a4.5,4.5,0,0,0,9.01,0h3V17.013l-4.091-8.18A1.5,1.5,0,0,0,29.106,8h-5.08V5Zm1.5,6.007v3H12.013v-3Zm22.525,0h4.15l1.5,3H24.026Zm0,6.007H31.18l.355.71v3.8h-1.17a4.447,4.447,0,0,0-6.338-.331ZM9.01,22.644a1.877,1.877,0,1,1-1.877,1.877A1.88,1.88,0,0,1,9.01,22.644Zm18.02,0a1.877,1.877,0,1,1-1.877,1.877A1.88,1.88,0,0,1,27.03,22.644Z" transform="translate(0 -5)" fill="#ff6fa1"/>
</svg>
