<svg xmlns="http://www.w3.org/2000/svg" width="32.671" height="26.137" viewBox="0 0 32.671 26.137">
  <path id="icons8-debit_card" d="M5.267,4A3.266,3.266,0,0,0,2,7.267v19.6a3.266,3.266,0,0,0,3.267,3.267H31.4a3.266,3.266,0,0,0,3.267-3.267V7.267A3.266,3.266,0,0,0,31.4,4Zm0,3.267H31.4v19.6H5.267Zm3.267,3.267v4.9h4.9v-4.9Zm9.8,1.634v3.267h9.8V12.168Zm-9.8,8.168V23.6H11.8V20.336Zm4.9,0V23.6H16.7V20.336Zm4.9,0V23.6H21.6V20.336Zm4.9,0V23.6H26.5V20.336Z" transform="translate(-2 -4)" fill="#2f98c4"/>
</svg>
