<svg xmlns="http://www.w3.org/2000/svg" width="29.088" height="29.088" viewBox="0 0 29.088 29.088">
  <path id="icons8-user" d="M17.544,3a6.464,6.464,0,1,0,6.464,6.464A6.489,6.489,0,0,0,17.544,3Zm0,3.232a3.232,3.232,0,1,1-3.232,3.232A3.208,3.208,0,0,1,17.544,6.232Zm0,14.544a25.771,25.771,0,0,0-8.97,1.771A13.486,13.486,0,0,0,4.884,24.6,4.559,4.559,0,0,0,3,28.048v4.04H32.088v-4.04A4.559,4.559,0,0,0,30.2,24.6a13.486,13.486,0,0,0-3.69-2.058A25.771,25.771,0,0,0,17.544,20.776Zm0,3.232a23.419,23.419,0,0,1,7.787,1.543,10.854,10.854,0,0,1,2.806,1.537c.61.508.72.854.72.96v.808H6.232v-.808c0-.106.109-.452.72-.96a10.854,10.854,0,0,1,2.806-1.537A23.419,23.419,0,0,1,17.544,24.008Z" transform="translate(-3 -3)" fill="#2f98c4"/>
</svg>
