<svg xmlns="http://www.w3.org/2000/svg" width="40.263" height="25.622" viewBox="0 0 40.263 25.622">
  <path id="icons8-team" d="M13.811,5a5.49,5.49,0,1,0,5.49,5.49A5.49,5.49,0,0,0,13.811,5ZM28.452,5a5.49,5.49,0,1,0,5.49,5.49A5.49,5.49,0,0,0,28.452,5ZM13.811,8.66a1.83,1.83,0,1,1-1.83,1.83A1.833,1.833,0,0,1,13.811,8.66Zm14.641,0a1.83,1.83,0,1,1-1.83,1.83A1.833,1.833,0,0,1,28.452,8.66ZM6.058,12.324A5.683,5.683,0,0,0,2.376,13.7,6.05,6.05,0,0,0,1,17.807a6.05,6.05,0,0,0,4.111-1.373,6.05,6.05,0,0,0,1.373-4.111S6.325,12.314,6.058,12.324Zm7.753,7.317C8.321,19.641,1,22.321,1,26.047v4.575H41.263V26.047c0-3.726-7.321-6.406-12.811-6.406a21.9,21.9,0,0,0-7.313,1.373A21.92,21.92,0,0,0,13.811,19.641Zm0,3.66c4.319,0,8.455,1.877,9.151,2.928v.733H4.66v-.733C5.356,25.178,9.492,23.3,13.811,23.3Zm14.641,0c4.319,0,8.455,1.877,9.151,2.928v.733H26.622v-.915A3.6,3.6,0,0,0,25.5,23.6,16.383,16.383,0,0,1,28.452,23.3Z" transform="translate(-1 -5)" fill="#2f98c4"/>
</svg>
