<svg xmlns="http://www.w3.org/2000/svg" width="22.001" height="20.901" viewBox="0 0 22.001 20.901">
  <path id="icons8-renew" d="M3,3A1,1,0,0,0,2,4V18a3,3,0,0,0,3,3h5.588A7.96,7.96,0,0,1,10,18H7a1,1,0,0,1,0-2h3.262a7.919,7.919,0,0,1,.816-2H7a1,1,0,0,1,0-2h5.721A7.961,7.961,0,0,1,18,10V4a1,1,0,0,0-1-1ZM7,6h6a1,1,0,0,1,1,1V8a1,1,0,0,1-1,1H7A1,1,0,0,1,6,8V7A1,1,0,0,1,7,6ZM21,7a1,1,0,0,0-1,1v2.262a7.919,7.919,0,0,1,2,.816V8A1,1,0,0,0,21,7Zm-3,5a6,6,0,0,0-1.2,11.881,1,1,0,0,0,.4-1.961,4.005,4.005,0,1,1,4.307-2l-.8-.8a.414.414,0,0,0-.705.293V21.75A1,1,0,0,0,21.2,23h2.389a.413.413,0,0,0,.291-.705l-.922-.922A5.994,5.994,0,0,0,18,12Z" transform="translate(-2 -3)" fill="#535baa"/>
</svg>
